<?xml version="1.0" standalone="no"?>
<!DOCTYPE svg PUBLIC "-//W3C//DTD SVG 20010904//EN"
 "http://www.w3.org/TR/2001/REC-SVG-20010904/DTD/svg10.dtd">
<svg version="1.0" xmlns="http://www.w3.org/2000/svg"
 width="128.000000pt" height="128.000000pt" viewBox="0 0 128.000000 128.000000"
 preserveAspectRatio="xMidYMid meet">

<g transform="translate(0.000000,128.000000) scale(0.100000,-0.100000)"
fill="#000000" stroke="none">
<path d="M586 1158 c-20 -19 -544 -915 -562 -963 -9 -23 4 -62 28 -85 21 -20
33 -20 584 -20 553 0 562 0 588 21 54 42 50 52 -245 563 -149 259 -280 479
-291 489 -28 24 -72 21 -102 -5z m107 -30 c20 -27 155 -260 295 -508 l31 -55
-157 3 c-179 4 -179 4 -174 -76 l4 -51 51 -15 c129 -38 212 -130 241 -267 5
-25 9 -26 92 -33 66 -5 93 -3 115 8 32 16 41 3 10 -14 -13 -6 -205 -10 -563
-9 -469 2 -527 3 -423 13 l120 11 7 41 c17 103 103 207 197 241 l51 18 0 58 0
57 -27 -6 c-16 -3 -53 -12 -83 -20 -30 -7 -56 -12 -57 -10 -2 2 9 16 24 32 15
16 28 33 28 39 0 5 11 15 25 22 14 7 24 17 22 23 -1 5 3 10 9 10 5 0 8 4 5 9
-3 4 4 17 15 27 11 10 17 24 15 31 -3 7 0 15 6 19 7 5 2 11 -13 16 -18 7 -20
11 -10 17 11 7 10 11 -5 20 -11 6 -15 11 -11 11 5 0 -10 16 -33 35 -40 33 -44
34 -55 18 -7 -10 -67 -112 -135 -228 -118 -202 -149 -249 -157 -242 -6 6 428
761 445 775 30 23 69 15 95 -20z m431 -752 c48 -82 86 -154 86 -160 0 -12 -47
63 -117 189 -25 44 -55 96 -66 115 -14 24 -15 30 -4 20 9 -8 54 -82 101 -164z"/>
<path d="M589 848 c-11 -21 -11 -22 4 -9 10 8 32 12 57 9 25 -2 39 0 37 7 -2
5 -22 11 -45 13 -34 3 -43 -1 -53 -20z"/>
<path d="M603 353 c-7 -2 -13 -12 -13 -21 0 -12 3 -13 12 -4 7 7 24 12 38 12
14 0 31 -5 38 -12 7 -7 12 -8 12 -2 0 27 -49 43 -87 27z"/>
</g>
</svg>
